<mxfile host="app.diagrams.net" modified="2021-07-24T09:25:01.802Z" agent="5.0 (Windows NT 6.1; Win64; x64) AppleWebKit/537.36 (KHTML, like Gecko) Chrome/92.0.4515.107 Safari/537.36" etag="IY-Ux_QmgScGU92BqHN8" version="14.9.2" type="github">
  <diagram id="Ms9xfb1MAtSLR_JwPrsC" name="Page-1">
    <mxGraphModel dx="1422" dy="794" grid="1" gridSize="10" guides="1" tooltips="1" connect="1" arrows="1" fold="1" page="1" pageScale="1" pageWidth="827" pageHeight="1169" math="0" shadow="0">
      <root>
        <mxCell id="0" />
        <mxCell id="1" parent="0" />
        <mxCell id="4vJ_d8DM7VvG51iMcIHR-1" value="" style="verticalLabelPosition=bottom;html=1;verticalAlign=top;align=center;strokeColor=none;fillColor=#00BEF2;shape=mxgraph.azure.file_2;pointerEvents=1;fontSize=16;" vertex="1" parent="1">
          <mxGeometry x="180" y="210" width="90" height="90" as="geometry" />
        </mxCell>
        <mxCell id="4vJ_d8DM7VvG51iMcIHR-2" value="" style="shape=flexArrow;endArrow=classic;html=1;fontSize=16;fillColor=#eeeeee;strokeColor=#36393d;" edge="1" parent="1">
          <mxGeometry width="50" height="50" relative="1" as="geometry">
            <mxPoint x="220" y="310" as="sourcePoint" />
            <mxPoint x="220" y="380" as="targetPoint" />
          </mxGeometry>
        </mxCell>
        <mxCell id="4vJ_d8DM7VvG51iMcIHR-3" value="哈希运算" style="text;html=1;align=center;verticalAlign=middle;resizable=0;points=[];autosize=1;strokeColor=#36393d;fontSize=16;fillColor=#ffff88;" vertex="1" parent="1">
          <mxGeometry x="240" y="330" width="80" height="20" as="geometry" />
        </mxCell>
        <mxCell id="4vJ_d8DM7VvG51iMcIHR-5" value="哈希值A" style="rounded=1;whiteSpace=wrap;html=1;fontSize=16;fillColor=#fff2cc;strokeColor=#d6b656;" vertex="1" parent="1">
          <mxGeometry x="170" y="400" width="120" height="40" as="geometry" />
        </mxCell>
        <mxCell id="4vJ_d8DM7VvG51iMcIHR-15" value="1. 如果，相同就证明消息是完整的&lt;br&gt;2. 如果不同，则说明消息可能被篡改过" style="text;html=1;align=left;verticalAlign=middle;resizable=0;points=[];autosize=1;strokeColor=#36393d;fontSize=16;fillColor=#ffff88;" vertex="1" parent="1">
          <mxGeometry x="810" y="540" width="290" height="40" as="geometry" />
        </mxCell>
        <mxCell id="4vJ_d8DM7VvG51iMcIHR-18" value="" style="shape=flexArrow;endArrow=classic;html=1;fontSize=16;fillColor=#eeeeee;strokeColor=#36393d;" edge="1" parent="1">
          <mxGeometry width="50" height="50" relative="1" as="geometry">
            <mxPoint x="320" y="419.5" as="sourcePoint" />
            <mxPoint x="400" y="420" as="targetPoint" />
          </mxGeometry>
        </mxCell>
        <mxCell id="4vJ_d8DM7VvG51iMcIHR-19" value="私钥加密" style="text;html=1;align=center;verticalAlign=middle;resizable=0;points=[];autosize=1;strokeColor=#36393d;fontSize=16;fillColor=#cce5ff;" vertex="1" parent="1">
          <mxGeometry x="320" y="380" width="80" height="20" as="geometry" />
        </mxCell>
        <mxCell id="4vJ_d8DM7VvG51iMcIHR-20" value="数字签名" style="rounded=1;whiteSpace=wrap;html=1;fontSize=16;fillColor=#cdeb8b;strokeColor=#36393d;" vertex="1" parent="1">
          <mxGeometry x="420" y="400" width="120" height="40" as="geometry" />
        </mxCell>
        <mxCell id="4vJ_d8DM7VvG51iMcIHR-21" value="" style="shape=flexArrow;endArrow=classic;html=1;fontSize=16;fillColor=#ffcc99;strokeColor=#36393d;" edge="1" parent="1">
          <mxGeometry width="50" height="50" relative="1" as="geometry">
            <mxPoint x="570" y="419.5" as="sourcePoint" />
            <mxPoint x="770" y="419.5" as="targetPoint" />
          </mxGeometry>
        </mxCell>
        <mxCell id="4vJ_d8DM7VvG51iMcIHR-22" value="内容+哈希值 A&lt;br&gt;一同发送出去" style="text;html=1;align=center;verticalAlign=middle;resizable=0;points=[];autosize=1;strokeColor=#36393d;fontSize=16;fillColor=#ffcc99;" vertex="1" parent="1">
          <mxGeometry x="610" y="359.5" width="120" height="40" as="geometry" />
        </mxCell>
        <mxCell id="4vJ_d8DM7VvG51iMcIHR-23" value="" style="rounded=0;whiteSpace=wrap;html=1;fontSize=16;align=left;dashed=1;" vertex="1" parent="1">
          <mxGeometry x="800" y="269.5" width="320" height="130" as="geometry" />
        </mxCell>
        <mxCell id="4vJ_d8DM7VvG51iMcIHR-24" value="" style="verticalLabelPosition=bottom;html=1;verticalAlign=top;align=center;strokeColor=none;fillColor=#00BEF2;shape=mxgraph.azure.file_2;pointerEvents=1;fontSize=16;" vertex="1" parent="1">
          <mxGeometry x="810" y="289.5" width="90" height="90" as="geometry" />
        </mxCell>
        <mxCell id="4vJ_d8DM7VvG51iMcIHR-26" value="数字签名" style="rounded=1;whiteSpace=wrap;html=1;fontSize=16;fillColor=#cdeb8b;strokeColor=#36393d;" vertex="1" parent="1">
          <mxGeometry x="970" y="314.5" width="120" height="40" as="geometry" />
        </mxCell>
        <mxCell id="4vJ_d8DM7VvG51iMcIHR-28" value="" style="shape=flexArrow;endArrow=classic;html=1;fontSize=16;fillColor=#eeeeee;strokeColor=#36393d;" edge="1" parent="1">
          <mxGeometry width="50" height="50" relative="1" as="geometry">
            <mxPoint x="1030" y="380" as="sourcePoint" />
            <mxPoint x="1030.5" y="460.5" as="targetPoint" />
          </mxGeometry>
        </mxCell>
        <mxCell id="4vJ_d8DM7VvG51iMcIHR-29" value="公钥解密" style="text;html=1;align=center;verticalAlign=middle;resizable=0;points=[];autosize=1;strokeColor=#36393d;fontSize=16;fillColor=#cce5ff;" vertex="1" parent="1">
          <mxGeometry x="1040.5" y="410.5" width="80" height="20" as="geometry" />
        </mxCell>
        <mxCell id="4vJ_d8DM7VvG51iMcIHR-30" value="哈希值A" style="rounded=1;whiteSpace=wrap;html=1;fontSize=16;fillColor=#fff2cc;strokeColor=#d6b656;" vertex="1" parent="1">
          <mxGeometry x="980" y="480" width="120" height="40" as="geometry" />
        </mxCell>
        <mxCell id="4vJ_d8DM7VvG51iMcIHR-31" value="" style="shape=flexArrow;endArrow=classic;html=1;fontSize=16;fillColor=#eeeeee;strokeColor=#36393d;" edge="1" parent="1">
          <mxGeometry width="50" height="50" relative="1" as="geometry">
            <mxPoint x="850" y="390.5" as="sourcePoint" />
            <mxPoint x="850" y="460.5" as="targetPoint" />
          </mxGeometry>
        </mxCell>
        <mxCell id="4vJ_d8DM7VvG51iMcIHR-32" value="哈希运算" style="text;html=1;align=center;verticalAlign=middle;resizable=0;points=[];autosize=1;strokeColor=#36393d;fontSize=16;fillColor=#ffff88;" vertex="1" parent="1">
          <mxGeometry x="860" y="410.5" width="80" height="20" as="geometry" />
        </mxCell>
        <mxCell id="4vJ_d8DM7VvG51iMcIHR-34" value="比对" style="edgeStyle=orthogonalEdgeStyle;rounded=0;orthogonalLoop=1;jettySize=auto;html=1;entryX=0;entryY=0.5;entryDx=0;entryDy=0;fontSize=16;startArrow=classic;startFill=1;endArrow=block;endFill=1;" edge="1" parent="1" source="4vJ_d8DM7VvG51iMcIHR-33" target="4vJ_d8DM7VvG51iMcIHR-30">
          <mxGeometry relative="1" as="geometry" />
        </mxCell>
        <mxCell id="4vJ_d8DM7VvG51iMcIHR-33" value="哈希值B" style="rounded=1;whiteSpace=wrap;html=1;fontSize=16;fillColor=#ffe6cc;strokeColor=#d79b00;" vertex="1" parent="1">
          <mxGeometry x="780" y="480" width="120" height="40" as="geometry" />
        </mxCell>
      </root>
    </mxGraphModel>
  </diagram>
</mxfile>
